<?xml version="1.0" encoding="UTF-8"?>
<svg width="225px" height="68px" viewBox="0 0 225 68" version="1.1" xmlns="http://www.w3.org/2000/svg" xmlns:xlink="http://www.w3.org/1999/xlink">
    <!-- Generator: Sketch 48.2 (47327) - http://www.bohemiancoding.com/sketch -->
    <title>Logo/Horizontal</title>
    <desc>Created with Sketch.</desc>
    <defs>
        <linearGradient x1="63.7433681%" y1="28.4570093%" x2="67.5918877%" y2="86.1079128%" id="linearGradient-1">
            <stop stop-color="#7A6AAF" offset="0%"></stop>
            <stop stop-color="#5942A9" offset="71.6962752%"></stop>
            <stop stop-color="#41307B" offset="100%"></stop>
        </linearGradient>
        <linearGradient x1="34.8730701%" y1="91.3128107%" x2="15.8106302%" y2="24.2056967%" id="linearGradient-2">
            <stop stop-color="#70DA77" offset="0%"></stop>
            <stop stop-color="#57B85C" offset="37.9249707%"></stop>
            <stop stop-color="#2F7114" offset="100%"></stop>
        </linearGradient>
        <linearGradient x1="46.5395749%" y1="50%" x2="46.539575%" y2="15.5365758%" id="linearGradient-3">
            <stop stop-color="#57B85C" offset="0%"></stop>
            <stop stop-color="#2F7114" offset="100%"></stop>
        </linearGradient>
        <linearGradient x1="59.9580824%" y1="50%" x2="59.9580824%" y2="100%" id="linearGradient-4">
            <stop stop-color="#7A6AAF" offset="0%"></stop>
            <stop stop-color="#5942A9" offset="100%"></stop>
        </linearGradient>
        <path d="M92.432632,48.3717239 C92.6172019,48.7101021 92.8171527,49.1407654 93.0747816,49.6252615 C93.3324105,50.1097576 93.5669681,50.6596222 93.8438231,51.2402486 C94.120678,51.8208749 94.3667713,52.4130368 94.6128645,53.0167343 C94.8589578,53.6204319 95.1088963,54.1895226 95.3357635,54.7240064 L96.0625077,53.0167343 C96.3162914,52.4130368 96.5777655,51.8208749 96.8315492,51.2402486 C97.0853328,50.6596222 97.3468069,50.1212932 97.6005906,49.6252615 C97.8543743,49.1292297 98.0543251,48.7101021 98.238895,48.3717239 L100.415282,48.3717239 C100.519103,49.079242 100.611388,49.8713547 100.699828,50.748062 C100.788268,51.6247693 100.865172,52.5360834 100.93054,53.4858496 C100.995909,54.4356158 101.057432,55.3853821 101.11511,56.3389935 C101.172788,57.2926049 101.218931,58.1885382 101.261228,59.0306386 L98.9233419,59.0306386 C98.8925803,57.9962778 98.850283,56.8657869 98.8002953,55.6468562 C98.7503076,54.4279254 98.6734035,53.1974591 98.5695829,51.9554571 C98.3850129,52.3861203 98.1850621,52.862926 97.9543497,53.3858742 C97.7236373,53.9088224 97.5044604,54.4317706 97.2814384,54.9547188 C97.0584164,55.477667 96.84693,55.977544 96.643134,56.4543497 C96.439338,56.9311554 96.2586133,57.3387474 96.1163406,57.6771256 L94.4398302,57.6771256 C94.2975575,57.3387474 94.120678,56.9311554 93.916882,56.4543497 C93.713086,55.977544 93.4977544,55.477667 93.2747324,54.9547188 C93.0517103,54.4317706 92.8286883,53.9088224 92.6056663,53.3858742 C92.3826443,52.862926 92.1711579,52.3861203 91.9865879,51.9554571 C91.8814856,53.1961774 91.8045814,54.4266437 91.7558755,55.6468562 C91.7058878,56.8657869 91.6635905,57.9962778 91.6328288,59.0306386 L89.2949428,59.0306386 C89.3372401,58.1885382 89.3833826,57.2926049 89.4410607,56.3389935 C89.4987388,55.3853821 89.5602621,54.4356158 89.6256306,53.4858496 C89.6909991,52.5360834 89.7679033,51.6247693 89.8563431,50.748062 C89.9447828,49.8713547 90.0370678,49.079242 90.1408884,48.3717239 L92.432632,48.3717239 Z M110.643534,59.2459702 C109.988742,59.2598088 109.337002,59.1529234 108.72093,58.9306632 C108.212835,58.7418939 107.753116,58.4424198 107.375108,58.0539559 C107.021938,57.6710198 106.759143,57.2137557 106.606066,56.7158238 C106.43132,56.1611856 106.345661,55.5823387 106.352283,55.0008613 L106.352283,48.3717239 L108.751692,48.3717239 L108.751692,54.8009105 C108.744305,55.1727781 108.793575,55.5436031 108.89781,55.9006398 C108.972447,56.171111 109.103493,56.4227193 109.282331,56.6389197 C109.447866,56.8266722 109.660124,56.9672929 109.897564,57.0465116 C110.153182,57.1302079 110.420713,57.1717662 110.689676,57.1695583 C111.217321,57.1906176 111.730863,56.9963045 112.112403,56.6312292 C112.476416,56.2723432 112.658423,55.662237 112.658423,54.8009105 L112.658423,48.3717239 L115.02707,48.3717239 L115.02707,55.0008613 C115.032816,55.5853826 114.944531,56.1670249 114.765596,56.7235142 C114.603573,57.2265498 114.33019,57.6865691 113.965793,58.0693368 C113.582051,58.4599992 113.113716,58.7573133 112.596899,58.9383536 C111.968641,59.1537897 111.307596,59.2578913 110.643534,59.2459702 Z M123.332718,57.2003199 C123.614566,57.2070729 123.896157,57.1786555 124.170973,57.1157254 C124.360273,57.0713131 124.540023,56.9931608 124.701612,56.8850129 C124.826991,56.800548 124.923584,56.6798065 124.978467,56.5389443 C125.030789,56.3961169 125.056843,56.2450026 125.055371,56.0929002 C125.054669,55.7350267 124.868347,55.4031415 124.563184,55.2161929 C124.034909,54.8933942 123.465925,54.642524 122.871293,54.4702227 C122.521379,54.3471761 122.175311,54.2049034 121.825397,54.0472499 C121.48459,53.8950192 121.168373,53.6928478 120.887166,53.4473976 C120.606986,53.2016968 120.377152,52.9039569 120.21041,52.5706903 C120.026079,52.1791564 119.936505,51.7497288 119.948936,51.3171527 C119.941915,50.8586759 120.036461,50.4043286 120.225791,49.986711 C120.402678,49.5970749 120.665618,49.2526233 120.994832,48.9792666 C121.360071,48.6892695 121.777876,48.4725333 122.225298,48.3409622 C122.75443,48.1849762 123.304082,48.1097879 123.855666,48.1179402 C124.951976,48.0956797 126.036271,48.3495634 127.008736,48.85622 L126.316599,50.748062 C125.997555,50.5854252 125.665765,50.4491084 125.324535,50.34047 C124.898083,50.2133158 124.454369,50.1536349 124.009475,50.1635905 C123.582958,50.1325559 123.155815,50.2148007 122.771318,50.4019934 C122.518927,50.5566397 122.371377,50.8369835 122.386797,51.1325827 C122.380816,51.3070264 122.429188,51.4790182 122.525225,51.6247693 C122.627898,51.7697882 122.758659,51.8927031 122.909745,51.9862188 C123.095305,52.101152 123.290935,52.1989669 123.494217,52.2784545 C123.713394,52.3668943 123.959487,52.4553341 124.224806,52.547619 C124.778516,52.751415 125.259167,52.955211 125.670604,53.1551618 C126.046742,53.3322992 126.392062,53.5685709 126.693429,53.8549895 C126.963255,54.1186125 127.170819,54.4391533 127.300972,54.7932201 C127.44473,55.2136787 127.512438,55.6563844 127.500923,56.1005906 C127.543261,56.9930143 127.154122,57.8514079 126.455026,58.407715 C125.759044,58.9575797 124.705457,59.2305894 123.301956,59.2305894 C122.874906,59.2342784 122.448178,59.2060013 122.025348,59.1459948 C121.685729,59.0967249 121.349326,59.0273898 121.017903,58.9383536 C120.755621,58.8697385 120.498611,58.7823552 120.248862,58.6768795 C120.067595,58.5989235 119.890479,58.511649 119.718223,58.4154054 L120.39498,56.4928018 C120.770097,56.6890424 121.164376,56.8462389 121.571613,56.9619171 C122.143846,57.1270057 122.737188,57.207327 123.332718,57.2003199 Z M132.45355,48.3717239 L134.852959,48.3717239 L134.852959,59.0306386 L132.45355,59.0306386 L132.45355,48.3717239 Z M145.2504,59.2459702 C143.51493,59.2459702 142.194742,58.7640376 141.289836,57.8001723 C140.384931,56.836307 139.931196,55.4622862 139.928633,53.67811 C139.91521,52.8718405 140.056172,52.0704483 140.343915,51.3171527 C140.602877,50.6591108 140.995694,50.0620292 141.497478,49.5637382 C141.986798,49.0823134 142.574448,48.7124086 143.22013,48.4793897 C143.9143,48.2228594 144.648777,48.0926329 145.388827,48.094869 C145.801111,48.0923181 146.21283,48.1257702 146.619294,48.1948443 C146.947032,48.2502634 147.270738,48.3273363 147.588286,48.4255568 C147.825433,48.4977614 148.056801,48.5877378 148.280423,48.6947213 C148.464993,48.7870063 148.599575,48.8600652 148.664944,48.9100529 L147.972807,50.8326566 C147.605014,50.6438839 147.21836,50.4943777 146.819244,50.3866125 C146.335303,50.2572976 145.835869,50.1951917 145.334994,50.2020426 C144.965732,50.2020886 144.599129,50.2644892 144.250646,50.3866125 C143.896667,50.5095152 143.575663,50.7121157 143.312415,50.9787745 C143.022603,51.2798987 142.799824,51.6389664 142.65873,52.0323613 C142.482036,52.5360076 142.398642,53.0676475 142.412637,53.6012059 C142.409323,54.0649809 142.46357,54.5273751 142.574136,54.9777901 C142.668412,55.3773315 142.846681,55.7522198 143.097084,56.0775194 C143.349939,56.3926705 143.674183,56.643103 144.043005,56.8081088 C144.489507,56.9996352 144.972403,57.0914906 145.458041,57.0772733 C145.771885,57.0803146 146.085513,57.0597488 146.396272,57.01575 C146.644818,56.9803802 146.89127,56.9316031 147.134551,56.8696321 C147.328876,56.8201585 147.519128,56.7558839 147.703642,56.6773717 L148.149686,56.4774209 L148.811062,58.4000246 C148.361289,58.6480004 147.880155,58.8342457 147.380645,58.9537345 C146.686295,59.1433804 145.970169,59.2416215 145.2504,59.2459702 Z M165.399286,50.2174234 C164.279049,50.2174234 163.471556,50.5276035 162.976806,51.1479636 C162.443236,51.8856454 162.179827,52.7844975 162.230835,53.6934908 C162.225306,54.1740436 162.287439,54.6529831 162.415405,55.1162175 C162.525055,55.5159499 162.713293,55.8898122 162.969115,56.2159468 C163.215747,56.5240733 163.532046,56.7692053 163.891965,56.9311554 C164.299264,57.1080063 164.740023,57.1945838 165.183955,57.1849391 C165.449274,57.1849391 165.679986,57.1849391 165.868402,57.1849391 C166.036316,57.1767787 166.203397,57.1562149 166.368279,57.1234158 L166.368279,53.4166359 L168.767688,53.4166359 L168.767688,58.6768795 C168.316439,58.833422 167.85359,58.9542769 167.383413,59.038329 C166.606967,59.177702 165.818918,59.2420851 165.030146,59.2305894 C164.287341,59.2357778 163.549816,59.105473 162.853759,58.8460687 C162.224919,58.6145907 161.655043,58.2469286 161.184939,57.7694106 C160.707857,57.2736167 160.343254,56.6808087 160.115971,56.0313769 C159.851557,55.2753775 159.721422,54.4789529 159.731451,53.67811 C159.71666,52.869232 159.857651,52.0650638 160.146733,51.3094623 C160.40673,50.6542183 160.799483,50.059853 161.300295,49.5637382 C161.782985,49.0851883 162.362485,48.715462 162.999877,48.4793897 C163.665318,48.2252028 164.371643,48.0948845 165.083979,48.094869 C165.539647,48.092038 165.994818,48.1254687 166.445183,48.1948443 C166.798481,48.248814 167.147862,48.3258833 167.491079,48.4255568 C167.738687,48.496318 167.980388,48.5863133 168.213978,48.6947213 C168.402393,48.7870063 168.540821,48.8600652 168.62157,48.9100529 L167.929433,50.8326566 C167.568466,50.644547 167.189797,50.4925638 166.798942,50.3789221 C166.342731,50.2572848 165.87121,50.2028785 165.399286,50.2174234 Z M181.22616,59.0306386 C181.106958,58.6461179 180.980066,58.2808232 180.841639,57.8770764 L180.434047,56.7235142 L176.269687,56.7235142 L175.885167,57.8770764 C175.750584,58.2615971 175.623693,58.6461179 175.500646,59.0306386 L173.008952,59.0306386 C173.408853,57.8822034 173.793374,56.8209261 174.162514,55.8468069 C174.531654,54.8726877 174.884131,53.9549649 175.219946,53.0936385 C175.560888,52.232312 175.899266,51.4145646 176.235081,50.6403962 C176.569614,49.8713547 176.919528,49.1023133 177.277132,48.3717239 L179.553495,48.3717239 C179.90469,49.1100037 180.249477,49.8662278 180.587855,50.6403962 C180.926234,51.4145646 181.268457,52.232312 181.614526,53.0936385 C181.960594,53.9549649 182.314353,54.8726877 182.675803,55.8468069 C183.037252,56.8209261 183.421773,57.8822034 183.829365,59.0306386 L181.22616,59.0306386 Z M178.342254,50.7865141 C178.288421,50.9403224 178.211517,51.1710348 178.107697,51.4171281 C178.003876,51.6632214 177.884675,51.9939092 177.753937,52.3399779 C177.6232,52.6860465 177.477083,53.0744125 177.311739,53.4935401 C177.146395,53.9126677 176.984896,54.3548665 176.815707,54.8162914 L179.864956,54.8162914 C179.703458,54.3548665 179.545804,53.9126677 179.391996,53.4896948 C179.238188,53.066722 179.09207,52.6822013 178.953642,52.3361326 C178.81906,51.9862188 178.696013,51.6786022 178.592193,51.4132829 C178.488372,51.1479636 178.403778,50.9364772 178.342254,50.7865141 Z M191.06989,48.3717239 C191.25446,48.7101021 191.454411,49.1407654 191.708195,49.6252615 C191.961979,50.1097576 192.204227,50.6596222 192.477236,51.2402486 C192.750246,51.8208749 193.000185,52.4130368 193.246278,53.0167343 L193.973022,54.7240064 C194.199889,54.1895226 194.438292,53.6204319 194.695921,53.0167343 C194.95355,52.4130368 195.215024,51.8208749 195.464962,51.2402486 C195.714901,50.6596222 195.976375,50.1212932 196.234004,49.6252615 C196.491633,49.1292297 196.691584,48.7101021 196.876154,48.3717239 L199.060231,48.3717239 C199.164052,49.079242 199.256337,49.8713547 199.344777,50.748062 C199.433216,51.6247693 199.506275,52.5360834 199.575489,53.4858496 C199.644703,54.4356158 199.702381,55.3853821 199.760059,56.3389935 C199.817737,57.2926049 199.86388,58.1885382 199.906177,59.0306386 L197.568291,59.0306386 C197.537529,57.9962778 197.495232,56.8657869 197.445244,55.6468562 C197.395257,54.4279254 197.314507,53.1974591 197.214532,51.9554571 C197.029962,52.3861203 196.830011,52.862926 196.595453,53.3858742 C196.360896,53.9088224 196.145564,54.4317706 195.926387,54.9547188 C195.707211,55.477667 195.491879,55.977544 195.284238,56.4543497 C195.076597,56.9311554 194.899717,57.3387474 194.76129,57.6771256 L193.084779,57.6771256 C192.938661,57.3387474 192.765627,56.9311554 192.557986,56.4543497 C192.350345,55.977544 192.138858,55.477667 191.919681,54.9547188 C191.700504,54.4317706 191.473637,53.9088224 191.24677,53.3858742 C191.019903,52.862926 190.816107,52.3861203 190.631537,51.9554571 C190.526435,53.1961774 190.44953,54.4266437 190.400824,55.6468562 C190.346992,56.8657869 190.308539,57.9962778 190.277778,59.0306386 L187.932201,59.0306386 C187.974499,58.1885382 188.020641,57.2926049 188.078319,56.3389935 C188.135997,55.3853821 188.197521,54.4356158 188.262889,53.4858496 C188.328258,52.5360834 188.405162,51.6247693 188.493602,50.748062 C188.582041,49.8713547 188.674326,49.079242 188.778147,48.3717239 L191.06989,48.3717239 Z M205.112588,59.0306386 L205.112588,48.3717239 L212.310816,48.3717239 L212.310816,50.3866125 L207.511997,50.3866125 L207.511997,52.4784053 L211.772487,52.4784053 L211.772487,54.4471515 L207.511997,54.4471515 L207.511997,57.01575 L212.664575,57.01575 L212.664575,59.0306386 L205.112588,59.0306386 Z" id="path-5"></path>
    </defs>
    <g id="Symbols" stroke="none" stroke-width="1" fill="none" fill-rule="evenodd">
        <g id="Logo/Horizontal" fill-rule="nonzero">
            <g id="Music-Note">
                <path d="M15.6076966,51.056663 L15.615387,34.5222714 L22.3022025,32.5266088 L22.3022025,58.716316 C22.3022025,62.1423957 19.5451889,65.0878245 15.6076966,66.3913498 C14.1693033,66.8620955 12.6645492,67.0983899 11.1511013,67.0911776 C4.99876953,67.0911776 0,63.3459456 0,58.7316968 C0,54.117448 4.99876953,50.3722161 11.1511013,50.3722161 C12.6635709,50.3620238 14.1679906,50.5930736 15.6076966,51.056663 Z M47.5382983,41.5282392 L47.5382983,24.9938477 L54.2251138,22.9981851 L54.2251138,49.1878922 C54.2251138,52.6178172 51.4757906,55.5594008 47.5382983,56.8475452 C46.0980606,57.3161172 44.5923938,57.5523512 43.0778578,57.547373 C36.925526,57.547373 31.9267565,53.802141 31.9267565,49.1878922 C31.9267565,44.5736434 36.925526,40.8284115 43.0778578,40.8284115 C44.5923938,40.8234333 46.0980606,41.0596672 47.5382983,41.5282392 Z" id="Combined-Shape" fill="url(#linearGradient-1)"></path>
                <path d="M47.5382983,2.24560108 L15.6230774,11.7778701 L15.6230774,29.3427772 L22.3022025,27.3471146 L47.5421435,19.8105082 L54.2174234,17.8186908 L54.2174234,0.249938477 L47.5382983,2.24560108 Z M26.1474099,20.975606 C25.6181431,21.6878546 24.9223701,22.2595239 24.1209856,22.6405808 L24.0786883,24.4670543 L22.459856,25.1284299 L22.5021533,23.3096469 C21.8937135,23.524714 21.2629581,23.6704713 20.6218469,23.7441553 C20.2536516,23.7815009 19.8826226,23.7815009 19.5144272,23.7441553 L20.12197,22.0714901 C20.5460991,22.1036092 20.9723416,22.094595 21.3947336,22.0445736 C21.9586232,21.9760433 22.5115889,21.8365099 23.0404823,21.6292913 C23.5893261,21.462256 24.0938383,21.1745264 24.517042,20.7871908 C24.7684493,20.5373706 24.9178599,20.2029102 24.9361696,19.8489603 C24.9506155,19.663483 24.8973368,19.4790569 24.7862065,19.3298573 C24.6642031,19.1946081 24.5050473,19.0983122 24.3286268,19.0530023 C24.091835,18.993816 23.8496058,18.9590278 23.6057278,18.9491817 L22.6713424,18.9491817 C22.345193,18.9511649 22.0191696,18.9357622 21.6946598,18.9030393 C21.3880999,18.8768816 21.0879729,18.8002258 20.8064169,18.676172 C20.5449139,18.5603707 20.3230237,18.3705611 20.1681125,18.1301526 C19.9907067,17.8242449 19.9115151,17.4712385 19.9412452,17.118863 C19.9667321,16.3912582 20.2210419,15.6902241 20.6679894,15.11551 C21.2116508,14.4392163 21.9238233,13.9180174 22.7328658,13.6043435 L22.755937,11.9201427 L24.3670789,11.535622 L24.3286268,13.1160022 C24.7520427,13.0312076 25.1814613,12.9797803 25.612926,12.9621939 C25.9027688,12.9482442 26.1932486,12.9559561 26.4819429,12.9852652 L26.0974222,14.5002769 C25.7644639,14.4805135 25.4306266,14.4805135 25.0976683,14.5002769 C24.6329519,14.5305365 24.1734542,14.6157243 23.7287745,14.7540605 C23.2558011,14.8674637 22.8176105,15.0944782 22.4521656,15.4154362 C22.1809618,15.6491811 22.0181957,15.9844515 22.0022764,16.3421312 C21.9870015,16.5058042 22.0276668,16.669821 22.1176326,16.8074013 C22.2160595,16.9278089 22.3510509,17.0128535 22.5021533,17.0496493 C22.6988716,17.1060791 22.9014433,17.139626 23.1058509,17.1496247 C23.3442537,17.1496247 23.609573,17.1803864 23.9094992,17.1803864 C24.3209364,17.2034576 24.7054571,17.2419097 25.0630614,17.2918974 C25.3850912,17.331394 25.6975542,17.4277367 25.9859112,17.5764427 C26.2371843,17.7073998 26.4444379,17.9093049 26.5819183,18.157069 C26.734748,18.4670467 26.8024277,18.8120803 26.7780239,19.1568229 C26.747465,19.8111833 26.5284776,20.4427751 26.1474099,20.975606 Z M37.7676264,17.8340716 C37.236702,18.5452945 36.5396298,19.1156263 35.737357,19.4952012 L35.6950597,21.3216747 L34.0762274,21.9868955 L34.1223699,20.1681125 C33.5120877,20.3813766 32.8802619,20.5270834 32.2382183,20.6026209 C31.8693455,20.6452268 31.4972767,20.6529514 31.1269534,20.6256921 L31.7383413,18.9453365 C32.1624146,18.9794257 32.5888521,18.9704074 33.011105,18.9184201 C33.5757031,18.8491257 34.1296909,18.7109516 34.6606989,18.5069829 C35.2088774,18.3384071 35.7130676,18.0508612 36.1372585,17.6648825 C36.3778958,17.4103414 36.5173586,17.0767244 36.5294697,16.7266519 C36.5453994,16.5404227 36.4904713,16.3550405 36.3756614,16.2075489 C36.2558245,16.0704691 36.0956302,15.974891 35.9180817,15.9345392 C35.6850606,15.8696745 35.4447197,15.8347863 35.2028731,15.8307186 C34.922173,15.8307186 34.606866,15.8076473 34.2607973,15.8076473 C33.9147287,15.8076473 33.6148025,15.8076473 33.2879599,15.7615049 C32.9810843,15.7372315 32.6806466,15.6604963 32.399717,15.5346376 C32.1405283,15.4204747 31.9201033,15.2334474 31.7652578,14.9963086 C31.5847968,14.6885919 31.5029381,14.3329759 31.5307001,13.9773287 C31.555718,13.2489841 31.8115611,12.5474353 32.2612895,11.9739756 C32.803421,11.296083 33.5160621,10.7745412 34.3261659,10.4628092 L34.3646179,8.79398917 L35.9757598,8.40946844 L35.9373077,9.98600345 C36.3591972,9.89977805 36.7874537,9.84833582 37.2177618,9.83219515 C37.507603,9.8181013 37.7980936,9.82581344 38.0867786,9.8552664 L37.7022579,11.3702781 C37.3681349,11.3468536 37.0327818,11.3468536 36.6986588,11.3702781 C36.2340668,11.399036 35.7745427,11.4829379 35.329765,11.6202166 C34.8583142,11.7356103 34.4208597,11.9609257 34.0531561,12.277747 C33.7828374,12.5142191 33.6192645,12.8496822 33.5994217,13.2082872 C33.5867606,13.3710695 33.6287037,13.5334297 33.7186231,13.6697121 C33.816475,13.7907685 33.9517045,13.8759631 34.1031438,13.9119601 C34.301473,13.968402 34.5050397,14.0044771 34.7106866,14.0196259 C34.9490895,14.0196259 35.218254,14.0465424 35.5104897,14.0465424 C35.9257721,14.0734588 36.3141381,14.1080657 36.6640519,14.1580534 C36.985465,14.1981208 37.2976146,14.2930663 37.5869017,14.4387535 C37.8333259,14.5644661 38.0387572,14.7578917 38.1790636,14.9963086 C38.3331458,15.3058617 38.4008931,15.6512398 38.3751692,15.9960625 C38.3509872,16.6569351 38.1330254,17.2961116 37.7484004,17.8340716 L37.7676264,17.8340716 Z M49.3839978,14.1772794 C48.8547237,14.8885585 48.1588707,15.458973 47.3575735,15.838409 L47.2960502,17.6879537 L45.6772179,18.3493294 L45.7195152,16.5305463 C45.1080457,16.7356765 44.4764109,16.874894 43.8353636,16.9458287 C43.4676452,16.9864497 43.0970351,16.9941708 42.7279439,16.9689 L43.3393319,15.2923896 C44.3334551,15.3682219 45.3317524,15.2156494 46.2578442,14.8463455 C46.806698,14.6819862 47.310527,14.393896 47.7305586,14.0042451 C47.981776,13.7574321 48.1313274,13.4254005 48.1496862,13.0737049 C48.1673102,12.8867263 48.113758,12.6999802 47.9997231,12.5507567 C47.8781042,12.4158301 47.7186436,12.3206897 47.5421435,12.277747 C47.3069748,12.2169583 47.0658489,12.1821434 46.8230897,12.1739264 L45.8848591,12.1739264 C45.5587779,12.1771946 45.2327543,12.1630755 44.9081764,12.1316291 C44.6030873,12.1041048 44.3044444,12.0274964 44.0237788,11.9047619 C43.7610713,11.7874088 43.5380188,11.5964118 43.3816291,11.3548973 C43.2042234,11.0489895 43.1250318,10.6959832 43.1547619,10.3436077 C43.1794462,9.61467619 43.4337991,8.91217767 43.8815061,8.3364095 C44.4247367,7.66147275 45.137249,7.14267886 45.9463824,6.83293343 L45.9886797,5.16026824 L47.5998216,4.75267626 L47.5613695,6.33305648 C47.9803179,6.24002345 48.4058467,6.17960093 48.8341331,6.15233173 C49.1226932,6.13822715 49.4119065,6.14593951 49.6993048,6.17540298 L49.3147841,7.69041467 C48.9817719,7.67255892 48.6480423,7.67255892 48.3150301,7.69041467 C47.8505997,7.72294228 47.3913621,7.80808182 46.9461363,7.94419835 C46.4746855,8.05959212 46.037231,8.28490753 45.6695275,8.60172881 C45.3962414,8.83550708 45.2331281,9.17288671 45.2196382,9.53226898 C45.2024519,9.69608009 45.2432741,9.86072963 45.3349945,9.99753907 C45.4363644,10.1137643 45.5703367,10.1968272 45.7195152,10.2359419 C45.9187582,10.2934317 46.1238512,10.3282588 46.3309032,10.3397625 C46.5654608,10.3397625 46.8346253,10.3705242 47.1268611,10.3743694 C47.5421435,10.3935954 47.9305094,10.4320475 48.2804233,10.4820352 C48.6072105,10.5221879 48.9246141,10.6184497 49.2186539,10.7665805 C49.4689108,10.8975876 49.6749115,11.0995752 49.8108158,11.3472068 C49.964898,11.6567599 50.0326452,12.002138 50.0069214,12.3469607 C49.9743069,13.0063148 49.7512558,13.6420771 49.3647717,14.1772794 L49.3839978,14.1772794 Z" id="Shape" fill="url(#linearGradient-2)"></path>
            </g>
            <path d="M83.9308786,5.57456626 L89.2641811,5.57456626 L89.2641811,25.1274456 C89.2765661,26.4726966 89.1241875,27.8144032 88.8104467,29.122616 C88.521543,30.309977 87.968161,31.416741 87.1916144,32.3602805 C86.3507047,33.3337394 85.2820368,34.0840525 84.0808416,34.5443583 C82.5003273,35.1253034 80.8228272,35.3968365 79.1397502,35.3441614 C77.5017376,35.3807187 75.8706559,35.1201625 74.3255506,34.57512 C73.2021361,34.1849256 72.1452286,33.6246998 71.1917067,32.9139904 L73.0835487,28.7419404 C73.8994465,29.2815469 74.7661837,29.740029 75.6713732,30.1108343 C76.6597651,30.5377082 77.7247399,30.7588148 78.801372,30.7606743 C80.5958021,30.7529839 81.8993273,30.3043764 82.7119478,29.4148517 C83.5245683,28.5253271 83.9308786,26.9872442 83.9308786,24.8006029 L83.9308786,5.57456626 Z M111.566384,17.3255199 C111.874414,18.4844243 112.025724,19.6793865 112.016273,20.8784914 L112.016273,34.2175157 C111.231851,34.3841413 110.047527,34.5866556 108.463301,34.8250584 C106.687855,35.0765647 104.896204,35.1960937 103.103082,35.1826627 C101.886382,35.1902602 100.672672,35.0612794 99.4847422,34.798142 C98.4801833,34.5847279 97.5292489,34.1700839 96.6892765,33.5792113 C95.9140493,33.011794 95.2928317,32.2597241 94.882029,31.3912883 C94.4163808,30.3473355 94.1929094,29.2115747 94.2283438,28.0690292 C94.1926553,26.9578554 94.4471068,25.8565572 94.9666236,24.8736619 C95.44731,24.0128952 96.1327465,23.2838761 96.9622862,22.7511074 C97.8563465,22.1836653 98.8468245,21.7848676 99.8846438,21.574474 C101.022322,21.3332762 102.18237,21.2134045 103.34533,21.2168697 C103.935123,21.2185237 104.524361,21.2531847 105.110281,21.3206903 C105.77593,21.3983917 106.436042,21.5178283 107.086717,21.6782946 L107.086717,20.8361942 C107.089232,20.2695253 107.019456,19.7048499 106.879076,19.1558386 C106.743795,18.6364567 106.491231,18.1550066 106.140796,17.7484927 C105.765156,17.3230415 105.289389,16.9979344 104.756521,16.8025717 C104.060739,16.5567515 103.325421,16.442021 102.587825,16.4641934 C101.503356,16.4567506 100.420223,16.5416518 99.35016,16.7179771 C98.5359311,16.8434524 97.7343195,17.0403169 96.9545958,17.3062938 L96.3355174,13.1842316 C97.2580919,12.8941265 98.199928,12.6692679 99.1540544,12.5113203 C100.459038,12.2819398 101.781955,12.1699809 103.106928,12.1767873 C104.542741,12.140073 105.973994,12.3534598 107.336656,12.8074013 C108.386794,13.1600917 109.333754,13.7663048 110.093669,14.5723514 C110.797886,15.3589529 111.302946,16.3031387 111.566384,17.3255199 Z M133.422542,29.9608712 L134.156977,34.1559924 C133.343644,34.5169136 132.488568,34.7752447 131.611449,34.9250338 C130.454834,35.1500735 129.279077,35.2621117 128.100775,35.2595669 C126.41972,35.2937578 124.748445,34.9958292 123.182755,34.3828596 C121.860918,33.859976 120.676896,33.0403694 119.722068,31.9872954 C118.790864,30.9253955 118.096174,29.6775746 117.684109,28.3266581 C117.222482,26.8326408 116.995477,25.2760396 117.011197,23.7124093 C117.003574,22.1581179 117.263724,20.6141264 117.780239,19.1481481 C118.250007,17.7909395 118.986008,16.5411754 119.94509,15.4721299 C120.89894,14.4221087 122.067359,13.589397 123.37117,13.0304233 C124.807407,12.4249982 126.35393,12.125122 127.91236,12.1498708 C129.931391,12.1442709 131.93177,12.5362459 133.799372,13.303433 L132.707334,17.4677925 C132.06217,17.1951081 131.392695,16.983966 130.707826,16.8371785 C129.92898,16.6640888 129.133168,16.5789614 128.335333,16.5833949 C126.346079,16.5859583 124.832349,17.2101637 123.794143,18.4560108 C122.755937,19.701858 122.236834,21.4603995 122.236834,23.7316353 C122.239397,25.9105861 122.730302,27.6409294 123.709548,28.9226652 C124.688795,30.204401 126.342234,30.8452689 128.669866,30.8452689 C129.531087,30.8459853 130.39024,30.7609716 131.234619,30.5914852 C131.98261,30.4525547 132.715352,30.2413601 133.422542,29.9608712 Z M155.667067,31.6027747 C156.352179,32.604801 156.982437,33.6432506 157.555063,34.7135474 L151.671896,34.7135474 C151.169456,33.8445306 150.588829,32.9332164 149.930017,31.979605 C149.266078,31.0234301 148.557278,30.0980169 147.803618,29.2033653 C147.049957,28.3087138 146.280915,27.4614864 145.496493,26.6616833 C144.78204,25.9229601 144.010622,25.2415413 143.189369,24.6237234 L143.189369,34.7097022 L138.098314,34.7097022 L138.098314,2.9213732 L143.177833,2.083118 L143.177833,21.3091547 C143.819983,20.6362434 144.50443,19.9094992 145.235019,19.1404577 C145.965608,18.3714163 146.680817,17.6023748 147.380645,16.8333333 C148.080472,16.0642919 148.745693,15.3183216 149.376307,14.6031131 C150.006921,13.8879045 150.549096,13.2649809 150.99514,12.7343423 L157.009044,12.7343423 C155.609388,14.3031869 154.134111,15.9284279 152.58321,17.6100652 C151.03231,19.2917026 149.473719,20.9323244 147.907438,22.5319306 C148.836968,23.3199618 149.716651,24.164971 150.541405,25.062077 C151.466818,26.0592675 152.364033,27.1179812 153.23305,28.2382183 C154.102067,29.3584554 154.913406,30.4799742 155.667067,31.6027747 Z M180.284084,18.9674234 C180.820325,20.5066859 181.079401,22.1288349 181.04928,23.7585517 C181.063224,25.3203852 180.844203,26.8755683 180.39944,28.3728005 C180.008154,29.6846986 179.372834,30.9109828 178.526824,31.9872954 C177.708779,33.0007013 176.664376,33.8080391 175.477575,34.3444075 C174.174056,34.9201716 172.761107,35.2061725 171.336286,35.1826627 C170.369371,35.1891387 169.406342,35.0596994 168.475452,34.798142 C167.736998,34.5919522 167.022821,34.3070551 166.345207,33.9483512 L166.345207,42.4847115 L161.257998,42.4847115 L161.257998,13.4303248 C162.293641,13.1534699 163.568968,12.8868689 165.083979,12.6305217 C166.667603,12.3697656 168.270167,12.2411488 169.875108,12.246001 C171.466966,12.220393 173.049765,12.4902772 174.543189,13.0419589 C175.86674,13.5475779 177.064605,14.3347834 178.053864,15.3490833 C179.045576,16.3832985 179.805823,17.6167344 180.284084,18.9674234 Z M224.1579,30.0031685 L224.996155,34.0675526 C224.244503,34.3733856 223.473852,34.6302692 222.68903,34.8365941 C221.589855,35.1152055 220.458168,35.2445411 219.324474,35.2211148 C217.986364,35.2576373 216.653304,35.0424174 215.394672,34.5866556 C214.410222,34.2158886 213.545917,33.5829511 212.895287,32.7563369 C212.249131,31.8997268 211.803656,30.9089061 211.591762,29.8570506 C211.321956,28.5778545 211.193014,27.2729634 211.207241,25.9657008 L211.207241,6.92038883 L216.294451,6.07828842 L216.294451,12.7381875 L224.115602,12.7381875 L224.115602,16.9679156 L216.294451,16.9679156 L216.294451,25.9080226 C216.294451,27.6729728 216.582841,28.9226652 217.136551,29.6917067 C217.690261,30.4607481 218.651563,30.8452689 219.997385,30.8452689 C220.825951,30.8565537 221.652305,30.7569774 222.454473,30.5491879 C223.031881,30.3986106 223.600552,30.2163278 224.1579,30.0031685 Z M205.427895,18.9674234 C205.966752,20.4826719 206.23361,22.081221 206.216162,23.689338 C206.233563,25.3058907 205.973441,26.9134424 205.447121,28.4420143 C204.987265,29.792982 204.258709,31.036889 203.30534,32.0988064 C202.371315,33.1133963 201.230551,33.9158642 199.96001,34.4520733 C198.601627,35.0265283 197.139704,35.3157717 195.664913,35.3018642 C194.19287,35.3212407 192.732864,35.0344773 191.377507,34.4597638 C190.116049,33.9192566 188.983678,33.1171609 188.055248,32.1064969 C187.099999,31.0419208 186.364316,29.7992318 185.890396,28.4497047 C185.358406,26.9225619 185.098123,25.314013 185.121355,23.6970284 C185.096827,22.0874809 185.357185,20.4862816 185.890396,18.9674234 C186.366816,17.6197053 187.111062,16.3823465 188.078319,15.3298573 C189.012507,14.3219404 190.151945,13.5260388 191.419804,12.9958164 C192.760133,12.4406232 194.198842,12.1620369 195.649532,12.1767873 C197.112726,12.161493 198.56411,12.4400017 199.917713,12.9958164 C201.190259,13.5195194 202.332268,14.3163001 203.263043,15.3298573 C204.216458,16.3885068 204.952069,17.6245429 205.427895,18.9674234 Z M107.086717,30.8875661 L107.048265,25.2504922 C106.647866,25.1396464 106.240702,25.0548741 105.829334,24.9967085 C105.245258,24.9081732 104.655119,24.8657449 104.064384,24.8698167 C103.494242,24.8705568 102.924916,24.912967 102.360957,24.9967085 C101.827964,25.0722402 101.309427,25.2278013 100.822874,25.4581334 C100.375214,25.671068 99.9908528,25.9971122 99.7077642,26.4040544 C99.4118779,26.8610169 99.2641704,27.3981353 99.2847914,27.9421373 C99.2847914,29.1495324 99.6693122,29.9839424 100.438354,30.4453673 C101.38139,30.9524161 102.445188,31.1917706 103.51452,31.1375046 C104.710487,31.1677899 105.90662,31.0840992 107.086717,30.8875661 Z M174.566261,28.9111296 C175.419897,27.6499016 175.849278,25.9541651 175.854405,23.8239203 C175.849278,21.5526845 175.336584,19.7864526 174.316322,18.5252246 C173.29606,17.2639966 171.64903,16.6333826 169.375231,16.6333826 C168.898425,16.6333826 168.402393,16.6526086 167.88329,16.6949059 C167.363178,16.7375443 166.848221,16.8289491 166.345207,16.9679156 L166.345207,29.5571244 C166.900935,29.9188486 167.500488,30.2082882 168.129384,30.4184508 C168.893548,30.682094 169.697408,30.8121684 170.505722,30.8029716 C172.356548,30.8029716 173.710061,30.1723576 174.566261,28.9111296 Z M199.58318,28.9649625 L199.58318,28.9534268 C200.52141,27.6383659 200.990525,25.8900783 200.990525,23.708564 C200.990525,21.5270498 200.52141,19.7954247 199.58318,18.5136889 C198.63553,17.3067044 197.186007,16.601866 195.651455,16.601866 C194.116903,16.601866 192.66738,17.3067044 191.719731,18.5136889 C190.7815,19.7544092 190.312385,21.4860342 190.312385,23.708564 C190.312385,25.9310939 190.7815,27.6832267 191.719731,28.9649625 C192.659582,30.1842772 194.111958,30.8985388 195.651455,30.8985388 C197.190952,30.8985388 198.643328,30.1842772 199.58318,28.9649625 Z" id="Jackpot" fill="url(#linearGradient-3)"></path>
            <g id="Combined-Shape">
                <use fill="url(#linearGradient-4)" fill-rule="evenodd" xlink:href="#path-5"></use>
                <use fill-opacity="0.24498981" fill="#FFFFFF" fill-rule="evenodd" xlink:href="#path-5"></use>
            </g>
        </g>
    </g>
</svg>